name Walk1.mot
datacolumns 19
datarows 30
range 2.61500000 2.76000000
endheader

                time	   L_ground_force_vx	   L_ground_force_vy	   L_ground_force_vz	   L_ground_force_px	   L_ground_force_py	   L_ground_force_pz	   R_ground_force_vx	   R_ground_force_vy	   R_ground_force_vz	   R_ground_force_px	   R_ground_force_py	   R_ground_force_pz	   L_ground_torque_x	   L_ground_torque_y	   L_ground_torque_z	   R_ground_torque_x	   R_ground_torque_y	   R_ground_torque_z	
          2.61500000	         -0.00000000	          0.00000000	         -0.00000000	         -0.00000000	          0.00000000	          0.00000000	         31.07133702	        127.08565863	         17.58949440	          0.64162061	          0.00000000	          0.13569051	          0.00000000	          0.00000000	          0.00000000	          0.00000000	         -4.96358893	          0.00000000	
          2.62000000	         -0.00000000	          0.00000000	          0.00000000	         -0.00000000	          0.00000000	          0.00000000	         24.76165208	         98.12734277	         15.52463049	          0.59572485	          0.00000000	          0.12819316	          0.00000000	          0.00000000	          0.00000000	          0.00000000	         -3.73672200	          0.00000000	
          2.62500000	         -0.00000000	         -0.00000000	          0.00000000	         -0.00000000	          0.00000000	          0.00000000	         18.99194524	         73.16694983	         13.19043068	          0.53941280	          0.00000000	          0.11828783	          0.00000000	          0.00000000	          0.00000000	          0.00000000	         -2.66543958	          0.00000000	
          2.63000000	         -0.00000000	         -0.00000000	          0.00000000	         -0.00000000	          0.00000000	          0.00000000	         13.89686628	         52.09804498	         10.75934907	          0.47343909	          0.00000000	          0.10591099	          0.00000000	          0.00000000	          0.00000000	          0.00000000	         -1.76613423	          0.00000000	
          2.63500000	         -0.00000000	         -0.00000000	          0.00000000	         -0.00000000	          0.00000000	          0.00000000	          9.56700611	         34.76097595	          8.39098787	          0.39997746	          0.00000000	          0.09131638	          0.00000000	          0.00000000	          0.00000000	          0.00000000	         -1.04592233	          0.00000000	
          2.64000000	         -0.00000000	         -0.00000000	          0.00000000	         -0.00000000	          0.00000000	          0.00000000	          6.04065527	         20.96064423	          6.21752095	          0.32301029	          0.00000000	          0.07524306	          0.00000000	          0.00000000	          0.00000000	          0.00000000	         -0.49980769	          0.00000000	
          2.64500000	         -0.00000000	         -0.00000000	          0.00000000	          0.00000000	          0.00000000	          0.00000000	          3.30184174	         10.45643122	          4.33243247	          0.24822134	          0.00000000	          0.05901861	          0.00000000	          0.00000000	          0.00000000	          0.00000000	         -0.10996280	          0.00000000	
          2.65000000	         -0.00000000	         -0.00000000	          0.00000000	          0.00000000	          0.00000000	          0.00000000	          1.28435792	          2.89330562	          2.78091872	          0.18062933	          0.00000000	          0.04394652	          0.00000000	          0.00000000	          0.00000000	          0.00000000	          0.14873390	          0.00000000	
          2.65500000	         -0.00000000	         -0.00000000	          0.00000000	          0.00000000	          0.00000000	          0.00000000	         -0.11099256	         -2.18560581	          1.56602597	          0.12299829	          0.00000000	          0.03080544	          0.00000000	          0.00000000	          0.00000000	          0.00000000	          0.30286803	          0.00000000	
          2.66000000	         -0.00000000	         -0.00000000	          0.00000000	          0.00000000	          0.00000000	          0.00000000	         -0.99702562	         -5.26975832	          0.66308506	          0.07631294	          0.00000000	          0.01994199	          0.00000000	          0.00000000	          0.00000000	          0.00000000	          0.37775806	          0.00000000	
          2.66500000	         -0.00000000	         -0.00000000	          0.00000000	          0.00000000	          0.00000000	          0.00000000	         -1.48636878	         -6.83079142	          0.03160454	          0.04033910	          0.00000000	          0.01139829	          0.00000000	          0.00000000	          0.00000000	          0.00000000	          0.39590749	          0.00000000	
          2.67000000	         -0.00000000	         -0.00000000	          0.00000000	          0.00000000	          0.00000000	          0.00000000	         -1.68262128	         -7.29161870	         -0.37585123	          0.01407944	          0.00000000	          0.00501792	          0.00000000	          0.00000000	          0.00000000	          0.00000000	          0.37623487	          0.00000000	
          2.67500000	         -0.00000000	         -0.00000000	          0.00000000	          0.00000000	          0.00000000	          0.00000000	         -1.67539920	         -7.01045943	         -0.60741943	         -0.00387389	          0.00000000	          0.00052945	          0.00000000	         -0.00000000	          0.00000000	          0.00000000	          0.33386358	          0.00000000	
          2.68000000	          0.00000000	         -0.00000000	          0.00000000	          0.00000000	          0.00000000	          0.00000000	         -1.53826400	         -6.27571486	         -0.70788010	         -0.01508063	          0.00000000	         -0.00239079	          0.00000000	         -0.00000000	          0.00000000	          0.00000000	          0.28028711	          0.00000000	
          2.68500000	          0.00000000	         -0.00000000	          0.00000000	          0.00000000	          0.00000000	         -0.00000000	         -1.32866378	         -5.30820424	         -0.71631882	         -0.02107460	          0.00000000	         -0.00407440	          0.00000000	         -0.00000000	          0.00000000	          0.00000000	          0.22376224	          0.00000000	
          2.69000000	          0.00000000	         -0.00000000	         -0.00000000	          0.00000000	          0.00000000	         -0.00000000	         -1.08916997	         -4.26794365	         -0.66507825	         -0.02325167	          0.00000000	         -0.00483183	          0.00000000	         -0.00000000	          0.00000000	          0.00000000	          0.16981705	          0.00000000	
          2.69500000	          0.00000000	          0.00000000	         -0.00000000	          0.00000000	          0.00000000	         -0.00000000	         -0.84944706	         -3.26330194	         -0.57961902	         -0.02280886	          0.00000000	         -0.00493542	          0.00000000	         -0.00000000	          0.00000000	          0.00000000	          0.12179257	          0.00000000	
          2.70000000	          0.00000000	          0.00000000	         -0.00000000	          0.00000000	          0.00000000	         -0.00000000	         -0.62853641	         -2.36095696	         -0.47897482	         -0.02072099	          0.00000000	         -0.00461151	          0.00000000	         -0.00000000	          0.00000000	          0.00000000	          0.08136308	          0.00000000	
          2.70500000	          0.00000000	          0.00000000	         -0.00000000	          0.00000000	          0.00000000	         -0.00000000	         -0.43716106	         -1.59557745	         -0.37655252	         -0.01774330	          0.00000000	         -0.00403908	          0.00000000	         -0.00000000	          0.00000000	          0.00000000	          0.04900159	          0.00000000	
          2.71000000	          0.00000000	          0.00000000	         -0.00000000	          0.00000000	          0.00000000	         -0.00000000	         -0.27986160	         -0.97856351	         -0.28109033	         -0.01443048	          0.00000000	         -0.00335255	          0.00000000	         -0.00000000	          0.00000000	          0.00000000	          0.02437337	          0.00000000	
          2.71500000	          0.00000000	          0.00000000	         -0.00000000	         -0.00000000	          0.00000000	         -0.00000000	         -0.15685483	         -0.50549188	         -0.19764144	         -0.01116476	          0.00000000	         -0.00264715	          0.00000000	         -0.00000000	          0.00000000	          0.00000000	          0.00665212	          0.00000000	
          2.72000000	          0.00000000	          0.00000000	         -0.00000000	         -0.00000000	          0.00000000	         -0.00000000	         -0.06556766	         -0.16214192	         -0.12849623	         -0.00818752	          0.00000000	         -0.00198543	          0.00000000	         -0.00000000	          0.00000000	          0.00000000	         -0.00523827	          0.00000000	
          2.72500000	          0.00000000	          0.00000000	         -0.00000000	         -0.00000000	          0.00000000	         -0.00000000	         -0.00184135	          0.07086523	         -0.07399225	         -0.00563074	          0.00000000	         -0.00140406	          0.00000000	         -0.00000000	          0.00000000	          0.00000000	         -0.01244906	          0.00000000	
          2.73000000	          0.00000000	          0.00000000	         -0.00000000	         -0.00000000	          0.00000000	         -0.00000000	          0.03917072	          0.21468361	         -0.03318801	         -0.00354580	          0.00000000	         -0.00092019	          0.00000000	         -0.00000000	          0.00000000	          0.00000000	         -0.01608864	          0.00000000	
          2.73500000	          0.00000000	          0.00000000	         -0.00000000	         -0.00000000	          0.00000000	         -0.00000000	          0.06237304	          0.28993268	         -0.00439627	         -0.00192834	          0.00000000	         -0.00053712	          0.00000000	         -0.00000000	          0.00000000	          0.00000000	         -0.01715021	          0.00000000	
          2.74000000	          0.00000000	          0.00000000	         -0.00000000	         -0.00000000	          0.00000000	         -0.00000000	          0.07231929	          0.31525828	          0.01441501	         -0.00073859	          0.00000000	         -0.00024899	          0.00000000	         -0.00000000	          0.00000000	          0.00000000	         -0.01647460	          0.00000000	
          2.74500000	          0.00000000	          0.00000000	         -0.00000000	         -0.00000000	          0.00000000	         -0.00000000	          0.07297804	          0.30656598	          0.02533826	          0.00008279	          0.00000000	         -0.00004452	          0.00000000	          0.00000000	          0.00000000	          0.00000000	         -0.01473840	          0.00000000	
          2.75000000	         -0.00000000	          0.00000000	         -0.00000000	         -0.00000000	          0.00000000	         -0.00000000	          0.06762880	          0.27674611	          0.03033918	          0.00060298	          0.00000000	          0.00009012	          0.00000000	          0.00000000	          0.00000000	          0.00000000	         -0.01245938	          0.00000000	
          2.75500000	         -0.00000000	          0.00000000	         -0.00000000	         -0.00000000	          0.00000000	          0.00000000	          0.05884982	          0.23573594	          0.03114671	          0.00088888	          0.00000000	          0.00016934	          0.00000000	          0.00000000	          0.00000000	          0.00000000	         -0.01001251	          0.00000000	
          2.76000000	         -0.00000000	          0.00000000	         -0.00000000	         -0.00000000	          0.00000000	          0.00000000	          0.04856572	          0.19079305	          0.02920124	          0.00100192	          0.00000000	          0.00020675	          0.00000000	          0.00000000	          0.00000000	          0.00000000	         -0.00765150	          0.00000000	
